<svg xmlns="http://www.w3.org/2000/svg" xmlns:xlink="http://www.w3.org/1999/xlink" width="160" zoomAndPan="magnify" viewBox="0 0 120 74.999997" height="100" preserveAspectRatio="xMidYMid meet" version="1.0"><defs><g/><clipPath id="42a56a1f22"><rect x="0" width="116" y="0" height="44"/></clipPath></defs><rect x="-12" width="144" fill="#ffffff" y="-7.5" height="89.999996" fill-opacity="1"/><rect x="-12" width="144" fill="#53a8cd" y="-7.5" height="89.999996" fill-opacity="1"/><g transform="matrix(1, 0, 0, 1, 2, 15)"><g clip-path="url(#42a56a1f22)"><g fill="#ffffff" fill-opacity="1"><g transform="translate(0.846374, 29.754458)"><g><path d="M 2.46875 -19.984375 L 8.109375 -19.984375 L 8.109375 0 L 2.46875 0 Z M 2.46875 -19.984375 "/></g></g></g><g fill="#ffffff" fill-opacity="1"><g transform="translate(11.42392, 29.754458)"><g><path d="M 20.375 -19.984375 L 20.375 0 L 15.359375 0 L 7.515625 -11.765625 L 7.515625 0 L 2.1875 0 L 2.1875 -19.984375 L 7.484375 -19.984375 L 15.0625 -8.703125 L 15.0625 -19.984375 Z M 20.375 -19.984375 "/></g></g></g><g fill="#ffffff" fill-opacity="1"><g transform="translate(33.985595, 29.754458)"><g><path d="M 19.671875 -3.796875 L 19.671875 0 L 18.03125 0 C 16.988281 0 16.171875 -0.0703125 15.578125 -0.21875 C 14.984375 -0.375 14.460938 -0.644531 14.015625 -1.03125 C 13.566406 -1.425781 13.085938 -2.03125 12.578125 -2.84375 L 10.1875 -6.578125 C 9.925781 -6.972656 9.695312 -7.234375 9.5 -7.359375 C 9.300781 -7.484375 9.023438 -7.546875 8.671875 -7.546875 L 7.828125 -7.546875 L 7.828125 0 L 2.1875 0 L 2.1875 -19.984375 L 11.234375 -19.984375 C 13.441406 -19.984375 15.175781 -19.457031 16.4375 -18.40625 C 17.707031 -17.351562 18.34375 -15.914062 18.34375 -14.09375 C 18.34375 -12.707031 17.988281 -11.554688 17.28125 -10.640625 C 16.582031 -9.722656 15.566406 -9.082031 14.234375 -8.71875 C 14.597656 -8.5 14.992188 -8.066406 15.421875 -7.421875 L 16.75 -5.515625 C 17.226562 -4.785156 17.609375 -4.316406 17.890625 -4.109375 C 18.171875 -3.898438 18.585938 -3.796875 19.140625 -3.796875 Z M 10.328125 -11.140625 C 11.210938 -11.140625 11.894531 -11.351562 12.375 -11.78125 C 12.863281 -12.21875 13.109375 -12.820312 13.109375 -13.59375 C 13.109375 -14.363281 12.863281 -14.960938 12.375 -15.390625 C 11.894531 -15.828125 11.210938 -16.046875 10.328125 -16.046875 L 7.828125 -16.046875 L 7.828125 -11.140625 Z M 10.328125 -11.140625 "/></g></g></g><g fill="#ffffff" fill-opacity="1"><g transform="translate(54.015409, 29.754458)"><g><path d="M 16.796875 -4.171875 L 16.796875 0 L 2.1875 0 L 2.1875 -19.984375 L 16.515625 -19.984375 L 16.515625 -15.8125 L 7.828125 -15.8125 L 7.828125 -11.875 L 15.953125 -11.875 L 15.953125 -8.109375 L 7.828125 -8.109375 L 7.828125 -4.171875 Z M 16.796875 -4.171875 "/></g></g></g><g fill="#ffffff" fill-opacity="1"><g transform="translate(72.216653, 29.754458)"><g><path d="M 14.0625 -3.203125 L 7.09375 -3.203125 L 6.078125 0 L 0.453125 0 L 7.421875 -19.984375 L 13.90625 -19.984375 L 20.875 0 L 15.078125 0 Z M 12.921875 -6.8125 L 10.578125 -14.21875 L 8.25 -6.8125 Z M 12.921875 -6.8125 "/></g></g></g><g fill="#ffffff" fill-opacity="1"><g transform="translate(93.540524, 29.754458)"><g><path d="M 9.796875 -19.984375 C 13.265625 -19.984375 15.929688 -19.117188 17.796875 -17.390625 C 19.660156 -15.660156 20.59375 -13.191406 20.59375 -9.984375 C 20.59375 -6.773438 19.660156 -4.304688 17.796875 -2.578125 C 15.929688 -0.859375 13.265625 0 9.796875 0 L 2.1875 0 L 2.1875 -19.984375 Z M 9.6875 -4.3125 C 11.40625 -4.3125 12.707031 -4.785156 13.59375 -5.734375 C 14.476562 -6.691406 14.921875 -8.109375 14.921875 -9.984375 C 14.921875 -11.859375 14.476562 -13.273438 13.59375 -14.234375 C 12.707031 -15.191406 11.40625 -15.671875 9.6875 -15.671875 L 7.765625 -15.671875 L 7.765625 -4.3125 Z M 9.6875 -4.3125 "/></g></g></g></g></g></svg>